<?xml version="1.0" standalone="no"?>
<!DOCTYPE svg PUBLIC "-//W3C//DTD SVG 20010904//EN"
 "http://www.w3.org/TR/2001/REC-SVG-20010904/DTD/svg10.dtd">
<svg version="1.0" xmlns="http://www.w3.org/2000/svg"
 width="265.000000pt" height="265.000000pt" viewBox="0 0 265.000000 265.000000"
 preserveAspectRatio="xMidYMid meet">
<metadata>
Created by potrace 1.14, written by Peter Selinger 2001-2017
</metadata>
<g transform="translate(0.000000,265.000000) scale(0.100000,-0.100000)"
fill="#000000" stroke="none">
<path d="M1167 2046 c-36 -34 -40 -59 -22 -151 8 -44 15 -83 15 -86 0 -3 -37
-29 -82 -56 -46 -28 -110 -76 -144 -106 l-60 -55 -150 88 c-153 92 -186 103
-237 79 -29 -13 -57 -58 -57 -91 0 -13 34 -83 75 -155 41 -72 75 -137 75 -143
0 -6 -34 -71 -75 -143 -41 -72 -75 -142 -75 -157 0 -54 48 -99 105 -99 33 0
68 16 189 89 l150 88 60 -55 c34 -30 98 -78 144 -106 45 -27 82 -52 82 -55 0
-3 -7 -43 -16 -90 -12 -67 -13 -90 -4 -113 16 -38 51 -59 98 -59 34 0 56 13
170 99 116 88 137 100 184 106 181 25 360 124 509 283 179 189 179 235 0 424
-149 159 -328 258 -509 283 -47 6 -68 18 -184 106 -117 89 -135 99 -173 99
-31 0 -49 -7 -68 -24z m608 -590 c39 -17 55 -42 55 -86 0 -45 -16 -70 -57 -86
-28 -12 -42 -13 -69 -4 -79 26 -85 143 -9 176 38 17 39 17 80 0z"/>
</g>
</svg>
