<?xml version="1.0" standalone="no"?>
<!DOCTYPE svg PUBLIC "-//W3C//DTD SVG 20010904//EN"
 "http://www.w3.org/TR/2001/REC-SVG-20010904/DTD/svg10.dtd">
<svg version="1.0" xmlns="http://www.w3.org/2000/svg"
 width="580.000000pt" height="580.000000pt" viewBox="0 0 580.000000 580.000000"
 preserveAspectRatio="xMidYMid meet">
<metadata>
Created by potrace 1.14, written by Peter Selinger 2001-2017
</metadata>
<g transform="translate(0.000000,580.000000) scale(0.100000,-0.100000)"
fill="#000000" stroke="none">
<path d="M2120 5390 c-25 -10 -55 -19 -68 -19 -12 -1 -25 -8 -28 -16 -3 -8
-14 -17 -24 -20 -21 -7 -90 -72 -90 -85 0 -5 -8 -16 -17 -26 -18 -17 -33 -60
-56 -156 -10 -42 -8 -56 18 -133 15 -47 34 -90 41 -96 8 -6 14 -16 14 -22 0
-20 86 -89 147 -118 55 -26 73 -29 155 -29 76 0 98 4 123 20 17 11 37 20 47
20 21 0 148 127 148 148 0 10 9 31 20 47 16 25 20 47 20 126 0 86 -3 102 -30
156 -28 57 -98 143 -115 143 -5 0 -16 6 -24 14 -24 21 -163 66 -202 65 -19 0
-54 -9 -79 -19z"/>
<path d="M5111 5224 c-25 -13 -52 -31 -61 -39 -9 -8 -21 -15 -27 -15 -5 0 -20
-9 -33 -20 -13 -11 -28 -20 -35 -20 -7 0 -20 -9 -30 -20 -10 -11 -24 -20 -31
-20 -7 0 -19 -6 -26 -13 -7 -8 -25 -20 -39 -28 -39 -21 -100 -57 -134 -79 -16
-11 -46 -29 -65 -40 -19 -11 -48 -29 -65 -40 -16 -11 -44 -27 -61 -37 -60 -35
-109 -64 -139 -83 -16 -11 -44 -27 -61 -34 -17 -8 -36 -22 -44 -30 -7 -9 -18
-16 -25 -16 -6 0 -22 -9 -35 -20 -13 -11 -28 -20 -35 -20 -7 0 -20 -9 -30 -20
-10 -11 -25 -20 -33 -20 -9 0 -24 -7 -34 -17 -21 -19 -49 -36 -95 -58 -18 -8
-33 -19 -33 -24 0 -5 -13 -14 -30 -19 -16 -6 -35 -16 -42 -22 -26 -21 -87 -58
-107 -65 -12 -3 -21 -10 -21 -15 0 -5 -16 -14 -35 -20 -19 -6 -35 -15 -35 -19
0 -4 -15 -15 -32 -24 -18 -10 -46 -26 -63 -37 -16 -11 -46 -29 -65 -40 -19
-11 -48 -29 -65 -40 -16 -11 -43 -27 -60 -35 -16 -9 -50 -29 -75 -45 -25 -16
-54 -34 -65 -40 -11 -6 -38 -22 -60 -35 -22 -13 -56 -34 -75 -45 -19 -11 -48
-29 -65 -40 -16 -11 -44 -27 -61 -34 -17 -8 -36 -22 -44 -30 -7 -9 -18 -16
-25 -16 -6 0 -22 -9 -35 -20 -13 -11 -28 -20 -34 -20 -6 0 -22 -11 -34 -25
-29 -30 -26 -32 93 -39 62 -4 97 -2 111 7 12 7 39 22 60 35 64 37 127 72 131
72 2 0 12 -19 22 -42 29 -68 70 -105 123 -113 102 -15 161 15 190 99 15 45 15
51 -3 103 -10 30 -28 62 -40 72 -20 16 -21 19 -7 46 9 15 29 35 45 44 41 22
102 57 138 81 17 11 44 27 60 35 17 9 50 29 75 45 25 16 54 34 65 39 12 5 27
16 34 25 7 9 19 16 27 16 7 0 19 6 26 13 14 14 50 35 104 61 17 8 36 22 44 30
7 9 18 16 25 16 6 0 22 9 35 20 13 11 27 20 31 20 5 0 34 17 66 38 62 40 79
51 133 82 19 11 49 29 65 40 17 11 44 27 62 35 17 8 34 19 38 25 4 6 21 17 38
25 18 8 46 24 62 35 17 11 46 29 65 40 19 11 49 29 65 40 17 11 44 27 60 35
17 8 38 21 48 28 15 10 21 9 33 -7 12 -17 14 -239 14 -1590 0 -864 4 -1576 8
-1582 13 -18 56 -44 74 -44 17 0 18 76 18 1652 l0 1651 32 29 c17 15 35 28 39
28 17 0 88 54 99 75 22 40 -9 106 -48 104 -9 0 -37 -11 -61 -25z m-1668 -1292
c27 -23 21 -57 -15 -85 -30 -24 -32 -24 -62 -8 -52 29 -47 105 7 113 28 5 47
-1 70 -20z"/>
<path d="M1940 4508 c-152 -48 -241 -111 -327 -235 -13 -18 -23 -37 -23 -44 0
-6 -8 -23 -18 -37 -11 -15 -25 -63 -32 -107 -17 -105 -25 -606 -10 -635 10
-19 19 -20 207 -20 l196 0 -6 98 c-4 53 -12 142 -18 198 -11 94 -8 154 9 154
15 -1 72 -106 72 -132 0 -16 9 -45 20 -65 11 -21 20 -48 20 -60 0 -13 12 -49
26 -80 20 -43 38 -65 69 -86 l43 -27 458 2 459 3 3 42 c3 34 -3 52 -26 86 -41
59 -96 83 -204 91 -48 3 -99 11 -115 17 -15 6 -77 15 -137 20 -59 5 -131 16
-159 24 -28 8 -63 15 -78 15 -36 0 -68 44 -78 109 -4 28 -14 57 -20 65 -16 19
-19 82 -4 97 8 8 19 -2 42 -33 17 -24 35 -54 41 -68 9 -22 24 -29 109 -49 l99
-24 27 22 c15 11 32 21 36 21 5 0 32 16 60 35 27 20 61 40 75 45 13 5 24 14
24 19 0 5 9 13 21 16 24 8 80 45 104 69 9 9 25 16 36 16 10 0 19 5 19 10 0 16
-33 12 -75 -10 -22 -11 -55 -20 -75 -20 -20 0 -45 -7 -57 -15 -12 -8 -43 -18
-70 -21 -26 -4 -58 -12 -70 -20 -29 -18 -127 -33 -147 -22 -13 7 -16 30 -16
131 0 168 -23 237 -110 325 -33 34 -68 62 -76 62 -8 0 -31 9 -51 20 -52 28
-183 27 -273 -2z"/>
<path d="M447 3270 c-14 -11 -30 -20 -36 -20 -5 0 -18 -16 -27 -35 -9 -19 -23
-35 -30 -35 -11 0 -14 -20 -14 -90 0 -76 3 -93 19 -109 11 -11 22 -41 26 -68
3 -26 15 -66 26 -89 10 -23 19 -55 19 -71 0 -17 6 -36 14 -42 8 -7 18 -27 22
-44 3 -18 15 -48 24 -67 10 -19 38 -75 61 -124 27 -54 52 -91 65 -96 11 -5 56
-13 100 -20 75 -11 123 -27 206 -71 47 -24 95 -24 133 1 17 11 37 20 46 20 9
0 22 6 28 14 13 16 22 18 148 37 133 20 250 -2 385 -72 53 -27 84 -24 173 20
158 76 372 76 530 0 89 -44 120 -47 173 -20 87 45 132 60 215 72 140 20 254
-1 389 -72 53 -27 84 -24 173 20 158 76 372 76 530 0 90 -44 118 -47 174 -18
34 17 53 20 128 16 48 -2 98 -7 111 -12 19 -6 24 -3 33 24 6 17 14 31 18 31 5
0 15 17 24 38 9 20 20 44 25 52 9 15 39 79 75 160 11 25 28 62 38 82 11 20 19
46 19 58 0 11 9 38 20 60 11 22 20 52 20 67 0 16 9 55 21 88 27 76 25 221 -3
249 -10 10 -18 21 -18 25 0 5 -17 20 -38 35 l-38 26 -1991 0 c-1975 0 -1990 0
-2016 -20z"/>
<path d="M515 2211 c-54 -9 -124 -42 -138 -66 -4 -8 -15 -15 -22 -15 -11 0
-15 -11 -15 -38 0 -35 3 -40 45 -60 49 -24 39 -25 193 20 33 10 51 10 85 0 23
-7 57 -17 75 -22 19 -4 41 -14 50 -22 66 -55 339 -55 404 0 24 20 118 45 168
45 50 0 129 -21 153 -41 48 -40 258 -65 322 -38 21 9 47 16 58 16 11 0 28 7
38 16 10 9 32 20 51 24 18 5 52 15 76 22 34 10 50 10 85 0 23 -7 57 -17 75
-22 19 -4 41 -15 51 -24 10 -9 27 -16 38 -16 11 0 37 -7 58 -16 64 -27 274 -2
322 38 24 20 103 41 153 41 50 0 129 -21 153 -41 48 -40 258 -65 322 -38 21 9
47 16 58 16 11 0 28 7 38 16 10 9 32 20 51 24 18 5 52 15 76 22 34 10 50 10
85 0 23 -7 57 -17 75 -22 19 -4 41 -15 51 -24 10 -9 27 -16 38 -16 11 0 37 -7
58 -16 27 -11 59 -14 114 -11 79 4 190 29 200 45 3 5 16 14 29 21 30 16 32 91
2 121 -27 27 -95 27 -135 0 -23 -15 -47 -20 -103 -20 -74 0 -78 1 -192 61 -41
21 -58 23 -180 23 -116 0 -141 -3 -175 -21 -22 -11 -59 -30 -82 -42 -31 -16
-60 -21 -113 -21 -72 0 -74 1 -192 62 -38 19 -59 22 -178 22 -122 0 -139 -2
-180 -23 -113 -59 -118 -61 -190 -61 -72 0 -74 1 -192 62 -38 19 -59 22 -178
22 -119 0 -140 -3 -177 -22 -119 -61 -121 -62 -193 -62 -72 0 -74 1 -192 62
-38 19 -59 22 -178 22 -122 0 -139 -2 -180 -23 -113 -59 -118 -61 -190 -61
-51 0 -82 6 -111 20 -21 11 -56 29 -78 39 -44 23 -203 35 -286 22z"/>
<path d="M1735 1576 c-53 -10 -83 -24 -132 -66 -22 -18 -15 -73 11 -97 29 -28
71 -29 111 -3 44 29 211 29 248 0 14 -11 31 -20 39 -20 7 0 30 -9 51 -20 31
-17 56 -20 157 -20 127 0 118 -2 237 59 59 30 206 30 264 1 21 -11 57 -29 78
-40 58 -29 264 -29 322 0 21 11 57 29 78 40 32 16 60 20 134 20 79 0 98 -3
120 -20 14 -11 31 -20 39 -20 7 0 30 -9 51 -20 31 -17 56 -20 159 -20 106 0
127 3 153 20 17 11 38 20 48 20 11 0 30 9 44 20 22 17 41 20 120 20 74 0 102
-4 134 -20 21 -11 57 -29 78 -40 58 -29 264 -29 322 0 21 11 57 29 78 40 31
16 60 20 131 20 71 0 100 -4 131 -20 21 -11 57 -29 78 -40 33 -17 60 -20 161
-20 101 0 126 3 157 20 21 11 43 20 50 20 7 0 17 9 23 19 5 11 19 23 30 26 30
9 24 46 -13 75 -25 20 -41 25 -80 23 -27 -1 -61 -10 -76 -19 -17 -12 -47 -18
-87 -18 -59 -1 -72 3 -174 54 -64 31 -191 45 -289 30 -50 -8 -96 -21 -110 -32
-13 -10 -31 -18 -40 -18 -9 0 -28 -8 -41 -17 -17 -12 -44 -17 -90 -17 -46 0
-73 5 -90 17 -13 9 -32 17 -41 17 -9 0 -27 8 -40 18 -14 11 -60 24 -110 32
-98 15 -225 1 -289 -30 -99 -49 -116 -55 -170 -55 -54 0 -71 6 -170 55 -64 31
-191 45 -289 30 -50 -8 -96 -21 -110 -32 -13 -10 -31 -18 -40 -18 -9 0 -27 -8
-41 -17 -15 -11 -45 -17 -85 -17 -60 -1 -73 3 -175 54 -19 9 -72 23 -117 30
-69 11 -97 11 -165 0 -46 -7 -99 -21 -118 -30 -99 -49 -116 -55 -170 -55 -35
0 -72 7 -96 19 -97 47 -123 56 -185 66 -77 12 -122 11 -204 -4z"/>
<path d="M4960 1046 c0 -91 4 -167 9 -171 5 -3 13 -20 16 -37 4 -18 19 -44 34
-58 102 -100 238 -94 324 15 24 30 30 49 34 109 3 41 3 90 -1 110 -6 31 -11
36 -35 36 -32 0 -41 -18 -41 -86 0 -48 -31 -116 -62 -138 -23 -16 -105 -22
-123 -8 -5 4 -21 20 -35 35 -24 27 -25 35 -30 190 l-5 162 -42 3 -43 3 0 -165z"/>
<path d="M1145 1150 c-27 -11 -66 -19 -85 -20 -19 0 -48 -9 -65 -20 -16 -11
-41 -20 -53 -20 -13 0 -35 -8 -48 -19 -13 -10 -41 -22 -61 -26 -32 -6 -40 -3
-58 18 -11 14 -29 27 -40 29 -17 3 -20 -2 -18 -37 1 -22 2 -56 3 -75 1 -19 -1
-59 -5 -87 -4 -29 -4 -53 1 -53 5 0 27 16 48 35 45 40 75 44 101 15 10 -11 25
-20 34 -20 9 0 33 -9 54 -20 20 -11 47 -20 59 -20 13 0 43 -10 68 -21 39 -18
66 -21 198 -22 152 -2 153 -2 172 23 16 21 17 27 4 44 -26 38 -18 64 24 75 20
6 48 12 62 13 34 4 38 47 9 96 -30 51 -63 80 -118 108 -39 20 -60 24 -141 23
-67 0 -110 -6 -145 -19z m235 -91 c9 -15 8 -24 -1 -35 -14 -18 -20 -18 -44 0
-19 14 -19 15 -1 35 24 26 32 26 46 0z"/>
<path d="M3535 803 c-11 -2 -47 -11 -81 -19 -33 -7 -75 -14 -92 -14 -18 0 -49
-9 -69 -20 -21 -11 -48 -20 -61 -20 -13 0 -35 -9 -49 -20 -14 -11 -34 -20 -43
-20 -10 0 -23 -7 -30 -15 -19 -23 -35 -18 -77 20 -21 19 -46 35 -55 35 -21 0
-23 -11 -5 -29 8 -8 12 -43 12 -101 0 -58 -4 -93 -12 -101 -18 -18 -16 -29 5
-29 9 0 34 16 55 35 42 38 58 43 77 20 7 -8 20 -15 29 -15 9 0 30 -9 46 -20
17 -11 40 -20 53 -20 12 0 40 -9 62 -20 22 -11 54 -20 72 -20 18 0 60 -7 93
-15 80 -19 128 -18 200 4 67 21 80 41 45 73 -12 11 -19 27 -16 35 3 8 6 17 6
19 0 2 22 4 50 4 61 0 75 19 65 90 -5 40 -14 54 -49 85 -56 48 -179 90 -231
78z m110 -115 c7 -6 3 -14 -9 -24 -25 -18 -40 -18 -56 1 -28 34 31 56 65 23z"/>
</g>
</svg>
